<svg width="22" height="22" viewBox="0 0 22 22" fill="none" xmlns="http://www.w3.org/2000/svg">
<path fill-rule="evenodd" clip-rule="evenodd" d="M1.75 11.5C1.75 6.39137 5.89137 2.25 11 2.25C16.1087 2.25 20.25 6.39137 20.25 11.5C20.25 16.6087 16.1087 20.75 11 20.75C5.89137 20.75 1.75 16.6087 1.75 11.5ZM11 0.75C5.06295 0.75 0.25 5.56295 0.25 11.5C0.25 17.4371 5.06295 22.25 11 22.25C16.9371 22.25 21.75 17.4371 21.75 11.5C21.75 5.56295 16.9371 0.75 11 0.75ZM14.7519 8.76926C14.9581 8.40998 14.834 7.95162 14.4747 7.74548C14.1154 7.53933 13.6571 7.66346 13.4509 8.02274L10.2873 13.5362L10.2873 13.5363C10.0338 13.978 9.38813 13.9514 9.17172 13.4904L9.17169 13.4903L8.57352 12.2154C8.39758 11.8404 7.95097 11.679 7.57597 11.8549C7.20098 12.0309 7.03961 12.4775 7.21555 12.8525L7.81375 14.1275L7.81378 14.1276C8.54581 15.6875 10.7307 15.7773 11.5883 14.2828L11.5884 14.2828L14.7519 8.76926Z" fill="#100918"/>
</svg>
