<svg fill="none" height="20" viewBox="0 0 20 20" width="20" xmlns="http://www.w3.org/2000/svg"><path d="m16.8532 0c1.1717 0 2.1167.9475 2.1725 2.0625v17.9375l-2.2308-1.8942-1.225-1.115-1.3367-1.165.5584 1.8375h-11.69837c-1.16833 0-2.116668-.8875-2.116668-2.0633v-13.53333c0-1.115003.949998-2.06417 2.120838-2.06417h13.75zm-5.0983 4.73583h-.025l-.1683.16667c1.7275.5 2.5633 1.28083 2.5633 1.28083-1.1133-.55666-2.1167-.835-3.12-.9475-.725-.1125-1.45001-.05333-2.06251 0h-.16666c-.39167 0-1.225.16667-2.34167.6125-.38917.16917-.6125.28-.6125.28s.835-.835 2.675-1.28083l-.1125-.1125s-1.39333-.05333-2.8975 1.05833c0 0-1.50416 2.62-1.50416 5.84997 0 0 .83333 1.45 3.11916 1.505 0 0 .33333-.4441.67083-.835-1.28333-.39-1.78333-1.17-1.78333-1.17s.11167.055.27917.1667h.05c.025 0 .03666.0125.05.025v.005c.01333.0133.025.025.05.025.275.1133.55.225.775.3333.38833.1684.8875.3359 1.5.4467.775.1125 1.66337.1667 2.67497 0 .5-.1125 1-.2225 1.5-.4458.325-.1667.725-.3334 1.1642-.6142 0 0-.5.78-1.8375 1.17.275.3883.6625.8333.6625.8333 2.2867-.05 3.175-1.5 3.225-1.4383 0-3.225-1.5125-5.85-1.5125-5.85-1.3625-1.01167-2.6375-1.05-2.8625-1.05l.0467-.01667zm.14 3.6775c.5858 0 1.0583.5 1.0583 1.1125 0 .61667-.475 1.11667-1.0583 1.11667s-1.0583-.5-1.0583-1.11167c.0016-.61666.4775-1.115 1.0583-1.115zm-3.78584 0c.58333 0 1.055.5 1.055 1.1125 0 .61667-.475 1.11667-1.05833 1.11667s-1.05834-.5-1.05834-1.11167c0-.61666.47501-1.115 1.05834-1.115z" fill="#7f7986"/></svg>