<svg fill="none" height="19" viewBox="0 0 69 19" width="69" xmlns="http://www.w3.org/2000/svg"><path d="m.62 14.5h2.97v-14.238s-1.512.252-2.97.252zm9.7511-.27c-.61202 1.314-1.29602 2.556-2.39402 2.556-1.476 0-1.944-1.44-1.944-1.44l-.576 1.926s.9 1.494 2.808 1.494c1.87202 0 3.00602-.882 4.19402-3.15l5.85-11.106h-3.258l-3.294 7.182-3.11402-7.182h-3.258zm11.713-5.796s.288-2.178 1.548-2.178c.342 0 .792.162.792.9 0 1.368-.306 2.376-.306 2.376l2.88-.738s.234-.666.234-1.908c0-1.404-.612-2.61-2.682-2.61-2.898 0-2.862 3.06-2.862 3.06l-.846-2.826h-1.728v9.99h2.97zm9.2652-3.924h-2.952v6.12c0 2.538 1.368 4.104 4.68 4.104 3.96 0 4.176-3.06 4.176-3.06l.846 2.826h1.728v-9.99h-2.97v6.048s-.612 2.196-2.97 2.196c-1.602 0-2.538-.648-2.538-1.98zm19.1858 9.99h2.97v-6.12c0-2.538-1.368-4.104-4.68-4.104-3.96 0-4.176 3.06-4.176 3.06l-.846-2.826h-1.728v9.99h2.97v-6.048s.612-2.196 2.97-2.196c1.602 0 2.52.648 2.52 1.98zm14.8477-2.736.162-3.726c.072-2.034-1.638-3.762-4.878-3.762-5.04 0-5.994 3.402-5.994 3.402l3.096.792s.018-2.214 2.754-2.214c1.836 0 2.052 1.116 2.052 2.034-5.472.468-7.434 2.394-7.434 4.068 0 1.512 1.116 2.376 2.952 2.376 3.096 0 4.788-3.222 4.878-3.384 0 2.016.54 3.384 2.682 3.384 1.566 0 2.394-.936 2.394-.936l-.594-1.944s-.522.9-1.35.9c-.54 0-.738-.432-.72-.99zm-7.146-.018c0-.954 1.062-2.196 4.338-2.502v.702s-1.206 2.808-3.294 2.808c-.9 0-1.044-.576-1.044-1.008z" fill="#100918"/></svg>