<svg fill="none" height="20" viewBox="0 0 20 20" width="20" xmlns="http://www.w3.org/2000/svg" xmlns:xlink="http://www.w3.org/1999/xlink"><clipPath id="a"><path d="m0 0h20v20h-20z"/></clipPath><g clip-path="url(#a)"><path d="m9.95333-.00003381c-2.64407.01233911-5.17563 1.07135381-7.04092 2.94538381-1.86528 1.87402-2.91243879 4.41052-2.91241 7.05462 0 2.65213 1.05357 5.19573 2.92893 7.07103 1.87537 1.8754 4.4189 2.929 7.07107 2.929 2.6522 0 5.1957-1.0536 7.0711-2.929 1.8753-1.8753 2.9289-4.4189 2.9289-7.07103 0-2.65217-1.0536-5.19571-2.9289-7.07107-1.8754-1.87537-4.4189-2.92893381-7.0711-2.92893381-.01556-.0000363-.03111-.0000363-.04667 0zm4.13497 6.02000381c.0834-.00167.2675.01916.3875.11666.0798.06925.1306.1659.1425.27084.0134.0775.03.255.0167.39333-.15 1.58167-.8017 5.4183-1.1333 7.1892-.14.75-.4159 1.0008-.6834 1.025-.58.0541-1.0208-.3834-1.5833-.7517-.88-.5775-1.3775-.9367-2.23167-1.5-.9875-.65-.3475-1.0083.215-1.5917.1475-.1533 2.70587-2.4808 2.75587-2.69163.0058-.02667.0116-.125-.0467-.17667s-.145-.03417-.2075-.02c-.0883.02-1.4942.95-4.2175 2.7875-.4.275-.76083.4083-1.085.4-.35667-.0067-1.04333-.2008-1.55417-.3667-.62666-.2041-1.12416-.3116-1.08083-.6575.0225-.18.27083-.3641.74417-.55247 2.915-1.27 4.85833-2.1075 5.83163-2.51166 2.7767-1.155 3.3542-1.35584 3.73-1.3625z" fill="#7f7986"/></g></svg>