<svg fill="none" height="20" viewBox="0 0 20 20" width="20" xmlns="http://www.w3.org/2000/svg"><path d="m19.9608 3.80832c-.7487.32968-1.542.54729-2.3541.64584.8551-.51396 1.4953-1.31996 1.8025-2.26917-.7925.4625-1.6709.79917-2.6059.98667-.6168-.65964-1.4342-1.09715-2.3253-1.24458-.891-.14744-1.8058.00345-2.6022.42924-.7965.42578-1.4301 1.10263-1.8024 1.92544-.37236.82281-.4626 1.74554-.25673 2.6249-3.40834-.16084-6.4275-1.79834-8.45-4.27167-.367675.62485-.55945 1.33752-.555003 2.0625 0 1.425.725003 2.6775 1.823333 3.41333-.65095-.02072-1.28752-.19672-1.856667-.51333v.05c-.000369.94699.326887 1.86495.926257 2.59811.59936.7332 1.43392 1.2365 2.36208 1.4244-.60142.1611-1.23133.1853-1.84334.0708.26344.815.77472 1.5275 1.46252 2.0379.68779.5105 1.51778.7935 2.37415.8096-1.45039 1.1383-3.24127 1.7561-5.085 1.7542-.325 0-.649167-.0192-.975-.0558 1.87976 1.2036 4.06543 1.8425 6.2975 1.8408 7.5442 0 11.665-6.2467 11.665-11.65418 0-.175 0-.35-.0125-.525.805-.57928 1.4994-1.29848 2.05-2.12333z" fill="#7f7986"/></svg>