<svg fill="none" height="20" viewBox="0 0 20 20" width="20" xmlns="http://www.w3.org/2000/svg"><path d="m17.0392 17.0433h-2.9617v-4.6408c0-1.1067-.0225-2.53083-1.5433-2.53083-1.5442 0-1.78 1.20413-1.78 2.44913v4.7225h-2.9617v-9.5433h2.845v1.30083h.0383c.3975-.75 1.3642-1.54166 2.8084-1.54166 3.0008 0 3.5558 1.975 3.5558 4.54583v5.2383zm-12.5917-10.84913c-.95333 0-1.71917-.77167-1.71917-1.72084 0-.94833.76667-1.71916 1.71917-1.71916.95 0 1.72.77083 1.72 1.71916 0 .94917-.77083 1.72084-1.72 1.72084zm1.485 10.84913h-2.97v-9.5433h2.97zm12.5883-17.0433h-17.04497c-.81583 0-1.47583.645-1.47583 1.44083v17.11837c0 .7966.66 1.4408 1.47583 1.4408h17.04247c.815 0 1.4817-.6442 1.4817-1.4408v-17.11837c0-.79583-.6667-1.44083-1.4817-1.44083z" fill="#7f7986"/></svg>