<svg fill="none" height="20" viewBox="0 0 20 20" width="20" xmlns="http://www.w3.org/2000/svg" xmlns:xlink="http://www.w3.org/1999/xlink"><clipPath id="a"><path d="m0 0h20v20h-20z"/></clipPath><g clip-path="url(#a)"><path d="m10 0c-2.65217 0-5.1957 1.05357-7.07107 2.92893-1.87536 1.87537-2.92893 4.4189-2.92893 7.07107 0 2.6522 1.05357 5.1957 2.92893 7.0711 1.87537 1.8753 4.4189 2.9289 7.07107 2.9289 2.6522 0 5.1957-1.0536 7.0711-2.9289 1.8753-1.8754 2.9289-4.4189 2.9289-7.0711 0-2.65217-1.0536-5.1957-2.9289-7.07107-1.8754-1.87536-4.4189-2.92893-7.0711-2.92893zm4.175 3.95333c.5733 0 1.0417.4675 1.0417 1.04084-.0029.27027-.1108.52884-.3008.72108s-.4473.3031-.7175.30915c-.2702.00606-.5322-.09315-.7306-.27669-.1985-.18353-.3178-.437-.3328-.70688l-2.1642-.45583-.6666 3.1225c1.52.05833 2.9.52667 3.895 1.24.2566-.2575.6083-.40917 1.0058-.40917.8067 0 1.4617.655 1.4617 1.46167 0 .5967-.3625 1.1108-.8417 1.345.0238.1432.0355.2882.035.4333 0 2.245-2.6083 4.0584-5.8367 4.0584-3.2283 0-5.83663-1.8134-5.83663-4.0584 0-.1525.0125-.305.03583-.445-.25798-.1144-.47714-.3014-.63085-.5381s-.23535-.513-.23498-.7952c0-.80667.655-1.46167 1.46166-1.46167.38584 0 .74834.16334 1.00584.40834 1.00583-.73584 2.39833-1.19167 3.95333-1.23917l.7375-3.485c.0176-.0671.0591-.12547.1167-.16417.0598-.03484.1301-.04725.1983-.035l2.4217.51417c.0818-.17554.2123-.3239.376-.42745s.3536-.15795.5473-.15672zm-6.46667 6.04667c-.57416 0-1.04166.4683-1.04166 1.0417 0 .5725.4675 1.04 1.04166 1.04.5725 0 1.04-.4675 1.04-1.0409 0-.5733-.4675-1.0408-1.04083-1.0408zm4.58337 0c-.5725 0-1.04.4675-1.04 1.0417 0 .5725.4675 1.04 1.0408 1.04s1.0408-.4675 1.0408-1.0409c0-.5725-.4683-1.0408-1.0416-1.0408zm-4.55503 3.325c-.072-.0003-.1412.0278-.1925.0783-.05064.0515-.07902.1208-.07902.1929 0 .0722.02838.1415.07902.193.70166.7016 2.07.7608 2.46753.7608.3975 0 1.7541-.0467 2.4675-.7608.0487-.0513.0778-.118.0822-.1886.0044-.0705-.0161-.1404-.0581-.1973-.0514-.0509-.1209-.0794-.1933-.0794s-.1419.0285-.1933.0794c-.4559.4442-1.4034.6084-2.0934.6084-.68997 0-1.64913-.1634-2.0933-.6084-.02541-.0253-.05557-.0453-.08875-.0589s-.06873-.0204-.10458-.0202z" fill="#7f7986"/></g></svg>